<?xml version="1.0" encoding="UTF-8"?>
<svg version="1.1" xmlns="http://www.w3.org/2000/svg" width="64" height="64">
<path d="M0 0 C1.1653125 -0.00128906 2.330625 -0.00257813 3.53125 -0.00390625 C4.7584375 -0.00003906 5.985625 0.00382813 7.25 0.0078125 C9.09078125 0.00201172 9.09078125 0.00201172 10.96875 -0.00390625 C12.71671875 -0.00197266 12.71671875 -0.00197266 14.5 0 C15.57765625 0.00112793 16.6553125 0.00225586 17.765625 0.00341797 C20.25 0.1328125 20.25 0.1328125 21.25 1.1328125 C21.32325168 3.99548817 21.34238205 6.8335315 21.3125 9.6953125 C21.30798828 10.50162109 21.30347656 11.30792969 21.29882812 12.13867188 C21.28700518 14.13675006 21.26906914 16.13479033 21.25 18.1328125 C23.56 18.1328125 25.87 18.1328125 28.25 18.1328125 C28.745 20.1128125 28.745 20.1128125 29.25 22.1328125 C31.23 22.1328125 33.21 22.1328125 35.25 22.1328125 C35.25 24.7728125 35.25 27.4128125 35.25 30.1328125 C33.27 30.1328125 31.29 30.1328125 29.25 30.1328125 C29.26160156 31.34839844 29.27320313 32.56398437 29.28515625 33.81640625 C29.29453278 35.40104014 29.30363313 36.98567568 29.3125 38.5703125 C29.32087891 39.37275391 29.32925781 40.17519531 29.33789062 41.00195312 C29.3465143 43.04576471 29.3022815 45.08965152 29.25 47.1328125 C27.30136075 49.08145175 24.3519128 48.2619999 21.75878906 48.27175903 C20.84838867 48.2697348 19.93798828 48.26771057 19 48.265625 C18.07155273 48.26658173 17.14310547 48.26753845 16.18652344 48.26852417 C14.21940035 48.26920605 12.25227504 48.26735122 10.28515625 48.26318359 C7.26296974 48.25783545 4.24093185 48.26312832 1.21875 48.26953125 C-0.68750033 48.26887047 -2.59375057 48.26758931 -4.5 48.265625 C-5.86560059 48.26866135 -5.86560059 48.26866135 -7.25878906 48.27175903 C-13.63505031 48.24776219 -13.63505031 48.24776219 -14.75 47.1328125 C-14.82325168 44.27013683 -14.84238205 41.4320935 -14.8125 38.5703125 C-14.80798828 37.76400391 -14.80347656 36.95769531 -14.79882812 36.12695312 C-14.78700518 34.12887494 -14.76906914 32.13083467 -14.75 30.1328125 C-16.73 30.1328125 -18.71 30.1328125 -20.75 30.1328125 C-20.75 27.4928125 -20.75 24.8528125 -20.75 22.1328125 C-18.77 22.1328125 -16.79 22.1328125 -14.75 22.1328125 C-14.42 20.8128125 -14.09 19.4928125 -13.75 18.1328125 C-11.44 18.1328125 -9.13 18.1328125 -6.75 18.1328125 C-6.76740234 16.30943359 -6.76740234 16.30943359 -6.78515625 14.44921875 C-6.79453278 12.86458486 -6.80363313 11.27994932 -6.8125 9.6953125 C-6.82087891 8.89287109 -6.82925781 8.09042969 -6.83789062 7.26367188 C-6.8465143 5.21986029 -6.8022815 3.17597348 -6.75 1.1328125 C-4.97550406 -0.64168344 -2.39982739 0.00251178 0 0 Z " fill="#F8A001" transform="translate(24.75,5.8671875)"/>
<path d="M0 0 C1.1653125 -0.00128906 2.330625 -0.00257813 3.53125 -0.00390625 C4.7584375 -0.00003906 5.985625 0.00382813 7.25 0.0078125 C9.09078125 0.00201172 9.09078125 0.00201172 10.96875 -0.00390625 C12.71671875 -0.00197266 12.71671875 -0.00197266 14.5 0 C15.57765625 0.00112793 16.6553125 0.00225586 17.765625 0.00341797 C20.25 0.1328125 20.25 0.1328125 21.25 1.1328125 C21.32325168 3.99548817 21.34238205 6.8335315 21.3125 9.6953125 C21.30798828 10.50162109 21.30347656 11.30792969 21.29882812 12.13867188 C21.28700518 14.13675006 21.26906914 16.13479033 21.25 18.1328125 C18.28 18.4628125 15.31 18.7928125 12.25 19.1328125 C12.25 20.4528125 12.25 21.7728125 12.25 23.1328125 C13.9 23.7928125 15.55 24.4528125 17.25 25.1328125 C16.92 26.4528125 16.59 27.7728125 16.25 29.1328125 C10.31 29.1328125 4.37 29.1328125 -1.75 29.1328125 C-2.08 27.8128125 -2.41 26.4928125 -2.75 25.1328125 C-1.1 24.4728125 0.55 23.8128125 2.25 23.1328125 C2.25 21.8128125 2.25 20.4928125 2.25 19.1328125 C-0.72 18.8028125 -3.69 18.4728125 -6.75 18.1328125 C-6.77684312 15.32024969 -6.79676188 12.50794009 -6.8125 9.6953125 C-6.82087891 8.89287109 -6.82925781 8.09042969 -6.83789062 7.26367188 C-6.8465143 5.21986029 -6.8022815 3.17597348 -6.75 1.1328125 C-4.97550406 -0.64168344 -2.39982739 0.00251178 0 0 Z " fill="#38CFEC" transform="translate(24.75,5.8671875)"/>
<path d="M0 0 C1.91329102 -0.01836914 1.91329102 -0.01836914 3.86523438 -0.03710938 C5.09435547 -0.03904297 6.32347656 -0.04097656 7.58984375 -0.04296875 C8.71124756 -0.04707764 9.83265137 -0.05118652 10.98803711 -0.05541992 C14.07683614 0.18863273 16.27435709 0.87610154 19.0625 2.1875 C18.7325 3.1775 18.4025 4.1675 18.0625 5.1875 C12.68167008 7.37373317 5.8168152 6.37213259 0.125 6.375 C-1.15052734 6.38724609 -2.42605469 6.39949219 -3.74023438 6.41210938 C-5.58391602 6.41500977 -5.58391602 6.41500977 -7.46484375 6.41796875 C-9.14694946 6.42413208 -9.14694946 6.42413208 -10.86303711 6.43041992 C-13.95183614 6.18636727 -16.14935709 5.49889846 -18.9375 4.1875 C-18.6075 3.1975 -18.2775 2.2075 -17.9375 1.1875 C-12.55667008 -0.99873317 -5.6918152 0.00286741 0 0 Z " fill="#000000" transform="translate(31.9375,57.8125)"/>
<path d="M0 0 C0.02684312 2.81256281 0.04676188 5.62487241 0.0625 8.4375 C0.07087891 9.23994141 0.07925781 10.04238281 0.08789062 10.86914062 C0.0965143 12.91295221 0.0522815 14.95683902 0 17 C-1 18 -1 18 -2.85766602 18.11352539 C-3.64842529 18.10828857 -4.43918457 18.10305176 -5.25390625 18.09765625 C-6.10791016 18.09443359 -6.96191406 18.09121094 -7.84179688 18.08789062 C-8.73962891 18.07951172 -9.63746094 18.07113281 -10.5625 18.0625 C-11.46419922 18.05798828 -12.36589844 18.05347656 -13.29492188 18.04882812 C-15.53001314 18.03700225 -17.76497437 18.0205222 -20 18 C-18.47639094 14.89978679 -16.80178638 11.94837771 -15 9 C-14.01 9.33 -13.02 9.66 -12 10 C-12 10.99 -12 11.98 -12 13 C-9.69 13 -7.38 13 -5 13 C-5.05220703 11.96939453 -5.05220703 11.96939453 -5.10546875 10.91796875 C-5.14607422 9.56638672 -5.14607422 9.56638672 -5.1875 8.1875 C-5.22230469 7.29417969 -5.25710937 6.40085937 -5.29296875 5.48046875 C-5 3 -5 3 -3.61328125 1.17578125 C-2 0 -2 0 0 0 Z " fill="#D88900" transform="translate(54,36)"/>
<path d="M0 0 C0.99 0 1.98 0 3 0 C4.59412284 3.18824568 4.10174735 6.62896662 4.0625 10.125 C4.05798828 10.87910156 4.05347656 11.63320313 4.04882812 12.41015625 C4.03703499 14.27347127 4.01909942 16.13674555 4 18 C2.35 18 0.7 18 -1 18 C-1.02684312 15.18743719 -1.04676188 12.37512759 -1.0625 9.5625 C-1.07087891 8.76005859 -1.07925781 7.95761719 -1.08789062 7.13085938 C-1.0965143 5.08704779 -1.0522815 3.04316098 -1 1 C-0.67 0.67 -0.34 0.34 0 0 Z " fill="#71DDF2" transform="translate(19,6)"/>
<path d="M0 0 C3.96 0 7.92 0 12 0 C11.67 1.32 11.34 2.64 11 4 C8.75487738 5.12256131 7.48543351 5.13413762 5 5.125 C3.948125 5.12886719 3.948125 5.12886719 2.875 5.1328125 C1 5 1 5 -1 4 C-0.67 2.68 -0.34 1.36 0 0 Z " fill="#FFBE48" transform="translate(11,24)"/>
<path d="M0 0 C5.94 0 11.88 0 18 0 C18 0.99 18 1.98 18 3 C12.06 3 6.12 3 0 3 C0 2.01 0 1.02 0 0 Z " fill="#028CAB" transform="translate(23,12)"/>
<path d="M0 0 C1.98 0 3.96 0 6 0 C6 2.64 6 5.28 6 8 C4.02 8 2.04 8 0 8 C0 5.36 0 2.72 0 0 Z " fill="#BC6200" transform="translate(54,28)"/>
<path d="M0 0 C1.98 0 3.96 0 6 0 C6 2.64 6 5.28 6 8 C4.02 8 2.04 8 0 8 C0 5.36 0 2.72 0 0 Z " fill="#BC6200" transform="translate(4,28)"/>
<path d="M0 0 C3.96 0 7.92 0 12 0 C12 0.99 12 1.98 12 3 C8.04 3 4.08 3 0 3 C0 2.01 0 1.02 0 0 Z " fill="#038EAD" transform="translate(23,18)"/>
<path d="M0 0 C0.99 0 1.98 0 3 0 C3 2.31 3 4.62 3 7 C2.01 7 1.02 7 0 7 C0 4.69 0 2.38 0 0 Z " fill="#F0FBFD" transform="translate(20,11)"/>
</svg>
